<?xml version="1.0" encoding="UTF-8"?> <svg xmlns="http://www.w3.org/2000/svg" width="250" height="134.885" viewBox="0 0 250 134.885"><g id="Group_758" data-name="Group 758" transform="translate(-11.758 -13.312)"><g id="Group_92" data-name="Group 92" transform="translate(104.563 13.312)"><path id="Path_6" data-name="Path 6" d="M72.291,65.029,72.315,65l-.046-.039Zm32.992-34.268-.461.361-.444.431-.4.518-.344.6-.331.648-.259.718-.23.778-.144.805-.115.863-.043.892.043.876.115.865.144.82.23.778.259.7.331.646.344.605.4.5.444.446.461.359.489.259-.489.03-.576-.044-.559-.13-.518-.215-.518-.3-.489-.374-.431-.448-.4-.5-.359-.563-.3-.631-.274-.648-.215-.705-.159-.746-.085-.778-.044-.805.044-.807.085-.776.159-.748.215-.705.274-.676.3-.618.359-.561.4-.5.431-.431.489-.374.518-.317.518-.215.559-.131.576-.043.489.03Zm-18.875-7.6-.374.043-.344.015-.331-.028-.317-.03-.274-.043-.243-.072-.187-.043-.144-.044-.1-.043-.028-.015.374-.157.3-.174.2-.172.143-.157.059-.174.028-.143-.043-.174-.072-.157-.115-.144-.144-.143-.172-.144-.159-.13-.187-.13-.474-.359-.374-.359-.287-.359-.2-.361-.144-.359-.072-.331-.043-.317.015-.3.043-.272.057-.261.072-.2.072-.172.057-.13.043-.087.015-.015.028.03.1.1.143.172.187.217.246.259.287.287.359.317.374.3.461.318.489.3.518.272.589.244.618.217.663.159.691.1.748.028-.259.6-.3.533-.331.446-.359.344-.346.3-.389.231-.387.172-.389.13Zm20.645.187.115.244.1.187.059.157.028.1.015.043-.057-.013-.144-.03-.23-.043-.259-.03-.331-.03L106,23.929l-.533.03-.474.1-.1.07-.1.131-.1.143-.231.317-.157.172-.187.146-.23.115-.289.085-.359.03-.461-.059-.417-.128-.389-.2-.374-.246-.359-.272-.317-.317-.33-.317-.3-.317L100,23.137l-.287-.257-.274-.187-.274-.13-.274-.044.3-.257.289-.231.331-.187.359-.157.4-.115.461-.1.548-.043.618-.028h.631l.72.043.661.072.561.128.5.189.446.215.374.259.3.259.272.272.2.274Zm13.193,4.662-.618.17-.591.115-.531.044-.474-.044-.446-.085-.4-.172-.33-.244-.261-.3-.23-.389-.157-.459-.087-.563-.043-.618.043.015.1.057.174.087.23.072.274.113.315.1.346.085.359.072.389.072.374.028.389-.028.374-.059.344-.115.346-.172.287-.259.259-.331-.244-.3-.3-.3-.389-.287-.446-.259-.5-.259-.531-.244-.591-.217-.6-.215-.633-.2-.648-.172-.661-.174-.648-.157-.646-.144-.633-.113-.605-.131-.576-.1-.531-.087-.489-.072-.431-.07-.374-.043-.317-.044-.215-.03-.144-.013h-.043v-.044l-.031-.1-.043-.157-.057-.217-.07-.246-.117-.3-.157-.315-.159-.346-.215-.344-.244-.346-.3-.344-.33-.331-.389-.317-.446-.3-.489-.244-.576-.217-.618-.157-.676-.1-.748-.044h-.878l-.576-.013h-.633l-.676-.015-.733-.015-.778-.015-.763-.028-.791-.043-.805-.044-.776-.043-.75-.072-.718-.057-.676-.072-.618-.1-.548-.1-.531-.157-.476-.2-.417-.259-.359-.3-.287-.317-.274-.331-.217-.315-.185-.333-.144-.287-.13-.244-.1-.187-.159-.172-.187-.057-.217.015-.2.085-.174.189-.143.243-.174.274-.143.331-.144.359-.115.374-.087.4-.015.387.03.4.115.4.2.374.272.346-.7-.03-.633-.115-.618-.172-.546-.23-.518-.274-.461-.287-.431-.318-.374-.3-.344-.315-.3-.289-.33-.289-.361-.17-.357-.087h-.376l-.446.115-.417.244-.374.331-.33.459-.1.159-.1.2-.1.259-.115.287-.115.359-.1.374-.087.4-.085.446-.059.444-.043.489v1.024l.057.5.087.548.13.518.185.531.217.531.287.5.331.518.4.5.444.444.548.461.6.418.676.374.763.359.848.317.937.274-.691.3-.691.23-.691.13-.676.057-.648-.015-.648-.085-.617-.159-.593-.2-.559-.257-.533-.318-.5-.344-.446-.389-.417-.4-.359-.446-.3-.461L77.89,24.2l-.2-.474-.128-.474-1.094.574-1.02.663-.965.691-.863.763-.835.805-.748.85-.676.891-.633.907-.576.92-.517.978-.461.965-.417.963-.374.978-.344.965-.291.965-.257.95-.23.905-.2.892-.157.863-.13.805-.113.778-.1.7-.087.661-.07.605-.059.518-.028.446-.043.359-.044.287-.028.2-.187.5-.246.418-.3.389-.33.315-.361.289-.372.23-.389.187-.389.157-.374.13-.331.085-.3.074-.259.03-.2.043-.131.013h-.043l.043.03.1.085.174.131.259.157.317.187.374.217.461.215.487.217.576.215.635.217.676.157.733.157.776.1.865.057h.891l.95-.087.992-.144,1.022-.23.892-.272.818-.359.763-.389.705-.446.633-.489.574-.533.518-.546.446-.533.417-.561.374-.546.317-.533.274-.5.215-.461.189-.417.144-.359.115-.3.072-.231.043-.13.013-.057v.057l.015.159v.23l.015.33-.015.389-.015.461-.056.5-.1.548-.13.589-.172.6-.244.633-.317.648-.374.631-.446.635-.546.6-.635.574-.646.491-.718.431-.705.359-.763.331-.748.244-.763.23-.763.174-.748.143-.733.087-.72.072-.661.043-.646.015-.576.03-.546-.03-.476-.015-.4-.028-.331-.03-.23-.03-.157-.013-.059-.015.95.833.979.792.933.7.907.6.878.505.835.431.791.359.761.287.72.2.705.159.646.085.62.03.776-.013.72-.089.646-.157.576-.2.517-.244.461-.274.417-.3.346-.3.3-.317.259-.287.2-.289.172-.257.115-.2.087-.172.057-.1.015-.043.028.015.087.07.143.072.159.13.159.172.187.189.143.243.131.274.085.318.03.344-.03.4-.13.431-.217.4-.272.359-.331.287-.374.261-.4.2-.4.172-.4.13-.361.087-.346.07-.287.044-.244.043-.143.015h-.044l.03.03.13.1.2.144.289.172.344.187.418.187.489.157.574.1.635.072h.459l.491-.044.517-.085.576-.144.574-.187.605-.259.633-.33.661-.4.678-.474.7-.561.733-.663.907-.878.848-.82.792-.805.718-.733.648-.691.618-.633.531-.576.476-.531.417-.461.359-.4.274-.331.23-.259.159-.187.1-.115.03-.043-.518-.676-.4-.678-.344-.646-.259-.618-.2-.605-.117-.576-.1-.546-.044-.489v-.459l.015-.4.043-.359.057-.317L93,42.458l.057-.157.028-.13.017-.028h-.044l-.159.013-.244.015h-.733l-.446.03-.733-.03-.82-.028-.863-.074-.907-.1-.935-.143-.92-.217-.878-.259-.835-.33.805-.289.705-.359.633-.361.591-.372.489-.389.431-.389.374-.359.3-.359.231-.289.185-.259.131-.187.085-.128.015-.044-.735-.043-.661-.115-.6-.159L87,36.675l-.489-.274-.446-.33-.4-.346-.359-.374-.3-.4-.274-.4-.23-.417-.2-.389-.157-.374L84,33.022l-.115-.346-.07-.274-.057-.23L83.717,32l-.028-.115v-.044l.043.015.13.043.2.03.274.072.344.057.4.057.461.043.489.015h.548l.574-.03.62-.07.646-.1.648-.172.691-.215.691-.317.7-.346.691-.431.678-.517.661-.618-.4.833-.459.733-.476.663-.489.574-.489.491-.476.417-.474.359-.446.289-.4.243-.346.174-.274.143-.23.087-.13.057h-.057l.057.03.115.056.217.072.287.087.361.115.4.087.476.1.517.059.563.043H91.6l.618-.057.633-.1-.015.631-.1.6-.144.563-.185.546-.231.474-.244.446-.259.389-.244.344-.231.289-.2.23-.157.172-.1.1-.043.044.057.015.13.015.215.028.287.03.346.028H92.1l.431-.028L93,39.755l.446-.115.489-.159.461-.23.444-.274.433-.374.056,1.194.1,1.122.144,1.05.2.978.257.907.287.835.318.791.344.718.374.648.389.591.389.561.417.489.4.446.417.4.417.361.389.317.389.274.344.23.331.215.287.172.259.144.23.13.174.085.13.087.072.044.187-.648.272-.576.331-.531.4-.461.448-.4.5-.361.531-.287.589-.244.605-.187.617-.144.648-.087.633-.028h.648l.631.087.635.115.589.17.576.217.546.244.5.331.446.359.4.418.344.446.259.5.215.546.115.591.03.646.691-.748.605-.72.517-.7.431-.678.359-.676.289-.646.215-.618.159-.6.115-.563.072-.531.03-.518-.03-.489-.03-.446-.057-.4-.1-.372-.087-.331-.1-.3-.1-.257-.087-.2-.087-.172-.072-.115-.043-.072-.013-.03-.418.576-.461.533-.574.444-.576.374-.663.289-.691.2-.5.072-.531.043-.548-.013-.544-.059-.563-.113-.559-.144-.576-.2-.548-.287-.531-.3-.5-.376-.489-.417-.431-.474-.418-.546-.359-.6-.317-.678-.244-.733-.187-.778-.115-.863-.043-.92.057-.733.13-.707.23-.659.3-.618.359-.563.431-.5.476-.4.518-.346.531-.259.576-.157.576-.057.705.043.661.115.6.2.576.246.518.272.459.331.418.359.344.389.244.259.274.259.287.185.359.159.418.115.474.087.576.013.172.174.159.23.1.287.087.317.057.317.028.317.03.317v.648l.03-.015.085-.043.115-.072.157-.13.159-.144.172-.2.144-.257.143-.289.1-.359.072-.417-.015-.476-.072-.531.259-.217.274-.287.257-.374.3-.446.259-.491.259-.531.23-.589.187-.605.13-.6.072-.633.013-.618-.056-.618ZM75.588,70.125l.03-.015.072.015.043.015.03.013.043.03.085.1.174.172.257.217.289.259.374.3.431.289.474.33.548.3.6.3.648.287.705.244.761.217.807.157.861.087.892.028.965-.057.992-.159.95-.2.892-.274.848-.315.778-.346.7-.361.691-.4.605-.4.531-.4.489-.374.417-.374.361-.331.287-.287.244-.259.172-.172.1-.115.157-.2.144-.13.115-.072.144-.028.115.057.13.115.172.2.174.217.243.274.289.331.374.372.431.4.5.4.546.418.618.431.691.417.763.389.791.359.878.331.92.274.992.2,1.037.131.935.043.922-.043.861-.1.807-.187.733-.215.676-.274.618-.3.561-.3.5-.318.431-.33.389-.3.3-.289.6-.6.072-.087.115-.115.1-.057h.043l.015.044-.028.1-.1.172-.217.331-.257.389-.346.417-.389.459-.459.461-.518.474-.546.446-.618.446-.648.389-.691.359-.746.3-.778.215-.807.159-.848.043-.818-.043-1.009-.159-.935-.215-.891-.289-.822-.331-.746-.387-.705-.4L98.089,73l-.574-.446-.533-.461-.489-.474-.417-.431-.374-.431-.317-.4-.274-.376-.215-.317-.174-.274-.13-.2-.085-.144-.087-.13-.1-.072-.1-.015L94.1,68.9l-.13.144-.2.3-.272.361-.317.417-.389.446-.431.489-.489.5-.546.518-.576.5-.648.474-.661.476-.705.417-.733.344-.792.3-.791.231-.835.13-1.02.057L83.6,75l-.905-.1-.848-.157-.78-.231-.746-.257-.691-.317-.618-.359-.605-.4-.531-.389-.491-.431-.444-.431-.389-.431-.374-.431-.3-.418-.274-.4-.043-.072Zm45.146-12.933-7.266,2.631.561,1.209h.057l.4.057.359.159.287.23.246.289.143.359.059.4-.059.4-.143.344-.246.3-.287.246-.359.143-.4.057-.4-.057-.359-.143-.289-.246-.23-.3-.159-.344-.057-.4.057-.389.144-.346.2-.289-.546-1.207-3.842,1.813,2.489,5.381.518-.187-.03-.159.059-.387.157-.361.231-.3.315-.23.346-.159.387-.057.418.057.359.159.287.23.246.3.143.361.059.387-.059.389-.143.359-.246.3-.287.23-.359.157-.418.059-.417-.059-.389-.17-.489.459-.531.461-.561.43-.618.389-.691.346-.718.317-.778.274-.835.185-.92.13-.979.074-.95-.031-.978-.1-.948-.23-.937-.3-.891-.4-.835-.489-.805-.561-.733-.646L97.385,68,96.78,67.2l-.215.03-.4-.043-.359-.159-.3-.23-.246-.3-.157-.374-.043-.374.043-.4.157-.359.246-.317.3-.23.359-.157.4-.059.389.059.344.157.317.23.2.317.157.359.059.4-.059.359-.115.344.833.778,4.764-4.762L99.615,58.6l-.95.935.087.287.043.3-.057.4-.144.357-.244.317-.287.231-.361.157-.4.044-.389-.044-.344-.157-.3-.231-.231-.317-.157-.357-.057-.4.057-.389.157-.359.231-.289.3-.23.344-.157.389-.044.3.015.274.085.935-.933-4.6-4.62-4.6,4.62.935.933.274-.085.3-.015.387.044.376.157.287.23.23.289.159.359.043.389-.043.4-.159.357-.23.317-.287.231-.376.157-.387.044-.387-.044-.361-.157-.3-.231-.246-.317-.157-.357-.043-.4.043-.3.087-.287-.935-.935-3.857,3.87,4.777,4.762.835-.778-.13-.344-.057-.359.057-.4.143-.359.231-.317.3-.23.359-.157.374-.059.4.059.359.157.317.23.23.317.159.359.043.4-.043.374-.159.374-.23.3-.317.23-.359.159-.4.043-.215-.03-.6.792-.678.7-.748.663-.791.561-.85.489-.905.4-.907.3-.963.23-.978.1-1.022.015-.965-.07-.905-.13-.835-.2L79.7,70.8l-.72-.317-.676-.344-.6-.389-.561-.431-.533-.446-.489-.459-.389.17-.431.059-.389-.059-.359-.157-.317-.23-.23-.3-.157-.359-.044-.389.044-.387.157-.361.23-.3.317-.23.359-.159.389-.057.389.057.374.159.3.23.23.3.159.361.056.387L76.8,67.3l.489.187L79.8,62.111,75.962,60.3,75.4,61.505l.217.289.144.346.056.389-.056.4-.159.344-.23.3-.289.246-.359.143-.4.057-.4-.057-.361-.143-.285-.246-.246-.3-.143-.344-.057-.4.057-.4.143-.359.246-.289.285-.23.361-.159.4-.057h.059l.576-1.209-7.151-2.646,7.206,24.5,1.944-.13,2.085-.13,2.015-.115L83,81.2l1.855-.085,1.785-.059,1.7-.043,1.613-.043,1.524-.028,1.424-.03h2.648l1.5.015,1.554.043,1.683.043,1.755.043,1.857.074,1.942.085,2.013.1,2.1.13,2.174.13,1.268.115Zm-2.259-4.949-.013-.144-.015-.085v-.03l-.028.03-.059.085-.1.131-.144.185-.2.2-.23.23-.3.259-.361.259-.4.274-.5.274-.531.257-.62.246-.705.243-.761.187-.835.157-.935.117-1.007.057h-.978l-1.065-.057-1.122-.087.03-.013.1-.044.174-.1.187-.13.231-.2.257-.231.246-.285.243-.361.246-.431.187-.5.143-.563.087-.648.015-.676-.015.015-.044.072-.085.144-.117.159-.157.2-.187.217-.259.243-.3.246-.344.272-.4.244-.461.261-.533.228-.591.2-.661.187-.733.144-.805.1-.878.044-.72-.03-.7-.115-.663-.157-.618-.217-.589-.289-.563-.285-.5-.318-.459-.33-.4-.317-.359-.3-.287-.259-.217-.246-.172-.157-.1-.115-.03-.044.015.044.028.1.072.144.087.244.143.289.174.357.23.406.274.472.33.52.4.589.461.648.531.689.6.763.748.878.72.778.648.718.631.618.591.548.546.489.518.431.461.359.446.3.387.259.361.2.315.172.289.144.243.085.2.072.172.059.13.028.087.015.07.015-.015-.03-.085-.087-.144-.115-.172-.172-.187-.2-.23-.23-.217-.274-.217-.3-.2-.3-.2-.331-.157-.331-.1-.344-.057-.33v-.361l.057-.33.157-.3.231-.317h.072l.144.03.243.043.346.057.389.087.459.057.518.072.576.057.605.043.646.03.661-.015.678-.057.7-.072.705-.144.691-.2.7-.246.663-.317.648-.389.646-.474.531-.474.461-.474.376-.461.272-.431.23-.417.159-.389.115-.346.087-.344.028-.274.015-.23Zm2.748-14.833-.157.072-.187.1-.289.128-.344.144-.417.144-.433.13-.5.1-.5.07-.546.028-.761-.043-.691-.115-.648-.144-.648-.2-1.294-.372-.661-.172-.705-.117-.778-.03-.546.03-.5.1-.446.143-.387.187-.317.217-.289.215-.23.23-.2.246-.157.2-.1.185-.085.144-.044.1-.015.028.044-.013.115-.072.174-.1.243-.087.317-.1.374-.085.446-.057.491-.03.5.03.444.085.461.144.459.157.433.189.444.2.461.217.517.172.533.172.591.144.646.07.718.03.62-.043.591-.13.531-.215.5-.261.461-.3.417-.33.359-.331.3-.331.274-.287.2-.259.143-.187.1-.144.013-.028Z" transform="translate(-61.979 -13.312)" fill="#eceae9"></path></g><g id="Group_93" data-name="Group 93" transform="translate(11.758 102.321)"><path id="Path_7" data-name="Path 7" d="M217.548,61.914h-6.805l-.209.087-.085.209v.748l.085.207.209.087a3.807,3.807,0,0,1,2.246.435c.394.3.6.83.6,1.89V76.233a4.811,4.811,0,0,1-2.357,4.322,9.886,9.886,0,0,1-5.093,1.254,6.109,6.109,0,0,1-4.147-1.283c-1.061-.942-1.779-2.524-1.784-5.16V65.6c-.007-1.194.1-1.774.355-1.992.239-.248.9-.352,2.187-.357a.29.29,0,0,0,.292-.294v-.748L202.953,62l-.207-.087h-9.226l-.205.087-.085.209v.748l.085.207.205.087a2.011,2.011,0,0,1,1.623.515,2.76,2.76,0,0,1,.446,1.835v9.762c-.009,2.938,1.072,4.936,2.843,6.138a12.138,12.138,0,0,0,6.839,1.644,14.559,14.559,0,0,0,6.628-1.315,6.026,6.026,0,0,0,3.335-5.714V65.579c0-1.115.166-1.67.473-1.935a2.716,2.716,0,0,1,1.84-.391l.211-.087.085-.207v-.748L217.758,62ZM24.273,70.534a6.133,6.133,0,0,1-3.779,1.029H18.822v-8.31H20.5a5.913,5.913,0,0,1,3.772,1.015,3.777,3.777,0,0,1,1.263,3.144,3.733,3.733,0,0,1-1.263,3.122m9.336,10.882a4.345,4.345,0,0,1-1.823-.283,1.513,1.513,0,0,1-.621-.607l-4.692-7.671a1.737,1.737,0,0,0-.451-.5,6.374,6.374,0,0,0,2.594-1.092,3.819,3.819,0,0,0,1.623-3.155,5.168,5.168,0,0,0-2.372-4.525c-1.608-1.083-4.029-1.666-7.366-1.666H12.052L11.845,62l-.087.209v.748a.29.29,0,0,0,.292.294c1.1.009,1.636.109,1.834.344.227.217.325.811.318,2.005V79.068c.007,1.194-.091,1.789-.318,2.005-.2.243-.734.341-1.834.343a.294.294,0,0,0-.292.293v.754l.087.209.207.085h9.281l.209-.085.085-.209v-.754a.293.293,0,0,0-.29-.293c-1.276,0-1.926-.109-2.161-.355-.259-.217-.364-.8-.353-1.992V72.913h2.067a1.3,1.3,0,0,1,1.013.472,6.2,6.2,0,0,1,.889,1.42l3.975,7.79a.286.286,0,0,0,.259.161h6.584l.211-.085.085-.209v-.754L33.82,81.5Zm15.639-2.67a5.137,5.137,0,0,1-9.4,0,14.6,14.6,0,0,1-1.294-6.408,14.594,14.594,0,0,1,1.294-6.408,5.137,5.137,0,0,1,9.4,0,14.569,14.569,0,0,1,1.3,6.408,14.58,14.58,0,0,1-1.3,6.408M44.563,61.524A10.812,10.812,0,1,0,55.44,72.337,11,11,0,0,0,44.563,61.524m33.72,1.729.207-.087.087-.207v-.748L78.49,62l-.207-.087H71.811L71.6,62l-.085.209v.748l.085.207.209.087a3.225,3.225,0,0,1,1.488.25c.24.141.263.239.272.376a1.868,1.868,0,0,1-.436.817l-4.653,6.171-4.8-6.553c-.048-.076-.141-.209-.216-.337l-.092-.176-.018-.057,0,0c.018-.109.022-.161.338-.289a5.87,5.87,0,0,1,1.734-.2.291.291,0,0,0,.29-.294v-.748L65.63,62l-.209-.087H54.95L54.741,62l-.089.209v.748l.089.207.209.087a5.777,5.777,0,0,1,2.076.215c.335.139.514.368.884.865l6.58,9.127v5.608c.006,1.205-.092,1.761-.386,1.981-.281.267-1.037.365-2.49.367a.3.3,0,0,0-.292.293v.754l.087.209.213.085H71.975l.211-.085.087-.209v-.754a.3.3,0,0,0-.292-.293c-1.449,0-2.206-.1-2.492-.367-.288-.22-.392-.776-.385-1.981V72.431L73.933,66a9.931,9.931,0,0,1,1.8-2.042,4.05,4.05,0,0,1,2.555-.707m3.923,11.906L85.649,67.5l3.661,7.656Zm17.477,6.264-.667-.009A2.123,2.123,0,0,1,97.72,81a3.076,3.076,0,0,1-1.089-1.439L88.269,62.272a4.6,4.6,0,0,0-.292-.526.518.518,0,0,0-.416-.222.58.58,0,0,0-.346.117,1.85,1.85,0,0,0-.279.306,17.373,17.373,0,0,1-2.568,2.513.293.293,0,0,0-.1.272.3.3,0,0,0,.179.23c.074,0,.255.3.379.63L79.651,77.138a13.227,13.227,0,0,1-1.706,3.144,3.621,3.621,0,0,1-2.2,1.141.291.291,0,0,0-.235.285v.754l.085.209.209.085h6.5l.213-.085.081-.209v-.754l-.081-.206-.213-.087a3.742,3.742,0,0,1-1.686-.294c-.335-.18-.429-.359-.434-.607A7.6,7.6,0,0,1,80.8,78.6l.793-1.878h8.562l.945,1.92a6.051,6.051,0,0,1,.778,1.929.587.587,0,0,1-.361.563,4.174,4.174,0,0,1-1.819.283l-.207.087-.087.206v.754l.087.209.207.085h9.926l.211-.085.083-.209v-.754a.289.289,0,0,0-.233-.285m54.606-6.264,3.439-7.656,3.662,7.656Zm17.473,6.264-.666-.009A2.136,2.136,0,0,1,169.8,81a3.111,3.111,0,0,1-1.087-1.439l-8.362-17.285a3.841,3.841,0,0,0-.294-.526.513.513,0,0,0-.416-.222.587.587,0,0,0-.344.117,2.028,2.028,0,0,0-.277.306,17.567,17.567,0,0,1-2.57,2.513.282.282,0,0,0-.1.272.291.291,0,0,0,.177.23c.074,0,.255.3.379.63l-5.177,11.548a13.16,13.16,0,0,1-1.706,3.144,3.606,3.606,0,0,1-2.195,1.141.288.288,0,0,0-.233.285v.754l.081.209.214.085h6.5l.209-.085.083-.209v-.754L154.6,81.5l-.209-.087a3.761,3.761,0,0,1-1.69-.294c-.331-.18-.427-.359-.433-.607a7.6,7.6,0,0,1,.608-1.916l.791-1.878h8.565l.945,1.92a6,6,0,0,1,.777,1.929.578.578,0,0,1-.362.563,4.16,4.16,0,0,1-1.816.283l-.207.087-.089.206v.754l.089.209.207.085H171.7l.213-.085.085-.209v-.754a.291.291,0,0,0-.235-.285M239.349,61.47H238.3a.291.291,0,0,0-.257.143.682.682,0,0,1-.468.243,3.985,3.985,0,0,1-.806.059H223.077a4.06,4.06,0,0,1-.812-.059.665.665,0,0,1-.46-.243.3.3,0,0,0-.263-.143h-1.052a.294.294,0,0,0-.288.233l-1.22,5.925a.3.3,0,0,0,.211.346l.643.167a.282.282,0,0,0,.327-.143c1.486-2.629,3.587-4.746,6.719-4.746.425.009.544.091.608.187a1.566,1.566,0,0,1,.124.8V79.068c.007,1.205-.094,1.761-.385,1.981-.283.267-1.037.365-2.492.367a.293.293,0,0,0-.288.293v.754l.083.209.207.085H235.1l.209-.085.087-.209v-.754a.294.294,0,0,0-.292-.293c-1.455,0-2.207-.1-2.49-.367-.292-.22-.392-.776-.386-1.981V64.238a1.647,1.647,0,0,1,.12-.8c.068-.1.189-.178.616-.187,3.124,0,5.227,2.116,6.711,4.746a.291.291,0,0,0,.336.143l.638-.167a.3.3,0,0,0,.216-.346L239.643,61.7a.3.3,0,0,0-.294-.233M144.775,72.193a14.749,14.749,0,0,0-4.25-2.355,34.3,34.3,0,0,1-4.149-1.829,2.88,2.88,0,0,1-1.747-2.429,2.384,2.384,0,0,1,1.052-2.018,4.011,4.011,0,0,1,2.294-.694,5.323,5.323,0,0,1,3.975,2.04,11.65,11.65,0,0,1,2.241,4.175.3.3,0,0,0,.281.213h.693l.209-.089.091-.207V61.985l-.091-.206-.209-.087h-.608a.3.3,0,0,0-.255.137,1.634,1.634,0,0,1-1.191.754c-.135.017-.838-.263-1.727-.518a11.686,11.686,0,0,0-3.47-.541,7.425,7.425,0,0,0-4.666,1.539,5.568,5.568,0,0,0-2.071,4.46,5.456,5.456,0,0,0,1.976,4.336,15.055,15.055,0,0,0,4.208,2.309,25.174,25.174,0,0,1,4.047,1.874,3.276,3.276,0,0,1,1.745,2.8,2.528,2.528,0,0,1-1.315,2.172,5.775,5.775,0,0,1-3.036.792,5.063,5.063,0,0,1-4-1.835,15.02,15.02,0,0,1-2.418-4.409.3.3,0,0,0-.274-.185H131.5l-.211.085-.083.209v7.121l.083.211.211.087h.834l.216-.1a4.883,4.883,0,0,1,.532-.505.831.831,0,0,1,.388-.2,19.965,19.965,0,0,1,2.015.437,17.926,17.926,0,0,0,3.317.424,9.67,9.67,0,0,0,5.665-1.409,5.981,5.981,0,0,0,2.3-5.229,5.475,5.475,0,0,0-1.989-4.316m116.831,4.475-.612-.335a.294.294,0,0,0-.385.087,16.48,16.48,0,0,1-3.243,3.849c-1.074.78-2.378,1.144-4.65,1.146H249.8c-.481,0-.614-.078-.651-.148a1.839,1.839,0,0,1-.111-.922V72.687h1.313c2.054,0,3.4.357,4.254,1.05a4.515,4.515,0,0,1,1.422,3.277.3.3,0,0,0,.3.261h.666l.2-.087.089-.209v-9.43l-.089-.206-.2-.093h-.666a.306.306,0,0,0-.3.272,3.621,3.621,0,0,1-1.9,3.005,7.771,7.771,0,0,1-3.777.817h-1.313V63.253H253.3c2.869.009,4.422,1.478,6.957,4.649A.313.313,0,0,0,260.6,68l.5-.2.161-.157,0-.224L259.151,62.1a.282.282,0,0,0-.274-.189H242.656l-.211.087-.083.209v.748a.289.289,0,0,0,.292.294c.91.009,1.314.1,1.479.328a3.759,3.759,0,0,1,.287,2.022V79.068a3.759,3.759,0,0,1-.287,2.022c-.165.226-.569.318-1.479.326a.3.3,0,0,0-.292.293v.755l.083.207.211.085H259.9a.292.292,0,0,0,.285-.215L261.747,77a.291.291,0,0,0-.141-.335m-68.3-.426-.693-.083a.3.3,0,0,0-.294.146c-1.237,2.185-2.28,3.446-3.59,4.166s-2.945.944-5.4.944a4.428,4.428,0,0,1-2.514-.385c-.333-.246-.468-.792-.466-1.963V65.6c-.007-1.194.1-1.774.355-1.992.242-.248.9-.352,2.189-.357a.291.291,0,0,0,.292-.294v-.748L183.1,62l-.211-.087h-9.693l-.214.087-.083.209v.748a.29.29,0,0,0,.294.294c1.289.006,1.947.109,2.187.357.263.218.364.8.353,1.992V79.068c.011,1.2-.081,1.742-.353,1.992-.455.417-2.158.355-2.158.355a.3.3,0,0,0-.294.293v.754l.091.209.207.085h18.414a.292.292,0,0,0,.285-.219l1.64-5.923-.041-.244Zm-72.079,0-.691-.083a.3.3,0,0,0-.294.146c-1.242,2.185-2.281,3.446-3.594,4.166s-2.941.944-5.4.944c-1.411.007-2.187-.1-2.514-.385-.335-.246-.47-.792-.468-1.963V65.6c-.009-1.194.1-1.774.357-1.992.24-.248.9-.352,2.189-.357a.289.289,0,0,0,.29-.294v-.748L111.02,62l-.214-.087h-9.691L100.9,62l-.085.209v.748a.289.289,0,0,0,.292.294c1.289.006,1.945.109,2.189.357.259.218.364.8.353,1.992V79.068c.011,1.2-.085,1.742-.353,1.992-.457.417-2.158.355-2.158.355a.3.3,0,0,0-.3.293v.754l.089.209.211.085h18.412a.292.292,0,0,0,.285-.219l1.64-5.923-.041-.244Z" transform="translate(-11.758 -61.47)" fill="#eceae9"></path></g><g id="Group_94" data-name="Group 94" transform="translate(52.268 137.302)"><path id="Path_8" data-name="Path 8" d="M33.791,89.964v-2.07a10.116,10.116,0,0,0,4.685,1.254c1.62,0,2.7-.435,2.7-1.226,0-.707-.735-.979-1.729-1.1l-2.057-.259c-1.824-.231-3.648-.776-3.648-2.831,0-1.961,1.811-3.268,4.533-3.268a11.013,11.013,0,0,1,4.509.992v2.166a9.242,9.242,0,0,0-4.385-1.226c-1.444,0-2.411.5-2.411,1.211s.831.928,1.92,1.076l2.124.274c1.744.217,3.392.842,3.392,2.831s-1.935,3.3-4.835,3.3A9.646,9.646,0,0,1,33.791,89.964Z" transform="translate(-33.737 -80.323)" fill="#eceae9"></path><path id="Path_9" data-name="Path 9" d="M41.139,85.743c0-3.172,2.205-5.283,5.5-5.283a6.646,6.646,0,0,1,3.812,1.117v2.152a5.217,5.217,0,0,0-3.405-1.335,3.331,3.331,0,0,0-3.662,3.363c0,2.044,1.47,3.392,3.69,3.392A5.525,5.525,0,0,0,50.59,87.7v2.179a6.959,6.959,0,0,1-3.949,1.2A5.118,5.118,0,0,1,41.139,85.743Z" transform="translate(-27.433 -80.323)" fill="#eceae9"></path><path id="Path_10" data-name="Path 10" d="M48.431,85.77c0-3.187,2.259-5.31,5.636-5.31s5.625,2.124,5.625,5.31-2.248,5.31-5.625,5.31S48.431,88.957,48.431,85.77Zm9.014,0a3.384,3.384,0,1,0-3.377,3.377A3.188,3.188,0,0,0,57.445,85.77Z" transform="translate(-21.224 -80.323)" fill="#eceae9"></path><path id="Path_11" data-name="Path 11" d="M66.042,82.385H62.215v8.5H60.063v-8.5h-3.84V80.533h9.819Z" transform="translate(-14.588 -80.261)" fill="#eceae9"></path><path id="Path_12" data-name="Path 12" d="M63.243,85.743c0-3.172,2.205-5.283,5.5-5.283a6.646,6.646,0,0,1,3.812,1.117v2.152a5.217,5.217,0,0,0-3.405-1.335,3.331,3.331,0,0,0-3.662,3.363c0,2.044,1.47,3.392,3.69,3.392A5.525,5.525,0,0,0,72.694,87.7v2.179a6.959,6.959,0,0,1-3.949,1.2A5.118,5.118,0,0,1,63.243,85.743Z" transform="translate(-8.61 -80.323)" fill="#eceae9"></path><path id="Path_13" data-name="Path 13" d="M80.768,80.533v10.35H78.616V86.512H73.032v4.372H70.88V80.533h2.152v4.125h5.584V80.533Z" transform="translate(-2.106 -80.261)" fill="#eceae9"></path><path id="Path_14" data-name="Path 14" d="M97.15,80.658v.2L92.943,91.281h-.218L89.36,84.445,85.9,91.281h-.218L81.476,80.862v-.2h2.261l2.327,6.02,3.2-6.292h.218l3.2,6.292,2.329-6.02Z" transform="translate(6.918 -80.386)" fill="#eceae9"></path><path id="Path_15" data-name="Path 15" d="M101.98,80.533v10.35H99.828V86.512H94.246v4.372H92.094V80.533h2.152v4.125h5.583V80.533Z" transform="translate(15.96 -80.261)" fill="#eceae9"></path><path id="Path_16" data-name="Path 16" d="M100.276,80.533h2.152v10.35h-2.152Z" transform="translate(22.928 -80.261)" fill="#eceae9"></path><path id="Path_17" data-name="Path 17" d="M104.075,89.964v-2.07a10.122,10.122,0,0,0,4.685,1.254c1.62,0,2.7-.435,2.7-1.226,0-.707-.737-.979-1.731-1.1l-2.055-.259c-1.826-.231-3.65-.776-3.65-2.831,0-1.961,1.811-3.268,4.535-3.268a11.011,11.011,0,0,1,4.507.992v2.166a9.236,9.236,0,0,0-4.385-1.226c-1.444,0-2.411.5-2.411,1.211s.831.928,1.92,1.076l2.124.274c1.744.217,3.392.842,3.392,2.831s-1.935,3.3-4.835,3.3A9.646,9.646,0,0,1,104.075,89.964Z" transform="translate(26.117 -80.323)" fill="#eceae9"></path><path id="Path_18" data-name="Path 18" d="M111.74,80.533h2.152v10.35H111.74Zm9.886,10.145v.206h-2.518l-4.89-5.19v-.2l4.822-4.957h2.355v.2L116.737,85.5Z" transform="translate(32.69 -80.261)" fill="#eceae9"></path><path id="Path_19" data-name="Path 19" d="M129.272,80.533v.2l-4.277,6.292v3.855h-2.152V87.028l-4.275-6.292v-.2h2.287l3.064,4.644,3.064-4.644Z" transform="translate(38.505 -80.261)" fill="#eceae9"></path></g></g></svg> 